<?xml version="1.0" standalone="no"?>
<!DOCTYPE svg PUBLIC "-//W3C//DTD SVG 20010904//EN"
 "http://www.w3.org/TR/2001/REC-SVG-20010904/DTD/svg10.dtd">
<svg version="1.0" xmlns="http://www.w3.org/2000/svg"
 width="496.000000pt" height="347.000000pt" viewBox="0 0 496.000000 347.000000"
 preserveAspectRatio="xMidYMid meet">

<g transform="translate(0.000000,347.000000) scale(0.100000,-0.100000)"
fill="#000000" stroke="none">
<path d="M1620 2145 c0 -333 2 -605 5 -605 2 0 30 12 62 26 207 92 465 181
848 294 333 98 512 158 635 216 111 51 95 35 -40 -41 -97 -54 -214 -108 -513
-235 -225 -94 -323 -145 -451 -230 -185 -124 -323 -281 -422 -481 -44 -88
-106 -260 -119 -332 l-7 -37 221 0 221 0 0 304 0 304 263 4 c242 4 269 7 359
31 169 45 306 127 396 237 77 95 142 256 142 356 0 40 3 44 89 112 91 73 167
150 232 237 38 51 119 193 119 209 0 5 -39 -29 -87 -75 -49 -47 -117 -106
-153 -131 -69 -49 -199 -123 -204 -117 -2 2 -8 27 -15 54 -25 102 -88 213
-165 289 -85 84 -156 128 -268 167 -130 44 -203 49 -694 49 l-454 0 0 -605z
m925 190 c138 -36 207 -115 230 -262 6 -39 5 -44 -18 -52 -74 -28 -419 -87
-624 -106 l-73 -7 0 221 0 221 213 0 c160 0 228 -4 272 -15z"/>
</g>
</svg>
